#!OML:ASF H:\MichaelJackson\Top Level 1\Subject 1\Session 1\male.ASF
:FULLY-SPECIFIED
:DEGREES
504
root -3.60683 16.1564 22.9787 -367.264 60.7398 -17.4644
lowerback 3.58467 -2.63328 -6.77844
upperback 1.07471 -3.72956 0.784747
thorax -0.411216 -1.87578 4.73808
lowerneck -4.4503 -13.6129 -7.40528
upperneck 14.1513 -19.751 12.752
head 7.08378 -9.13615 3.48126
rclavicle 2.42517e-014 4.77083e-015
rhumerus -38.9788 4.5804 -65.6355
rradius 44.6097
rwrist 4.88977
rhand -23.1575 -26.1009
rfingers 7.12502
rthumb 3.29098 -56.0552
lclavicle 2.42517e-014 4.77083e-015
lhumerus -38.7266 2.23474 81.025
lradius 39.6136
lwrist 13.2884
lhand -33.6631 6.46713
lfingers 7.12502
lthumb -6.85438 36.3362
rfemur -14.3279 -13.3328 5.47823
rtibia 36.7249
rfoot 8.6775 -30.0145
rtoes 7.94203
lfemur -29.2528 26.0848 2.01892
ltibia 48.5243
lfoot -15.5251 9.42181
ltoes -19.1302
505
root -3.71896 16.1956 23.127 -366.908 58.7788 -17.0376
lowerback 3.34501 -2.42859 -6.64878
upperback 1.09715 -3.43542 0.667067
thorax -0.307893 -1.73225 4.52376
lowerneck -4.79099 -13.2833 -7.1852
upperneck 14.3994 -19.3075 12.5732
head 7.13394 -8.89986 3.42472
rclavicle -1.13705e-013 -2.22639e-014
rhumerus -39.6917 4.79972 -67.6101
rradius 44.4501
rwrist 5.08773
rhand -23.672 -25.8652
rfingers 7.12502
rthumb 2.79408 -55.8267
lclavicle -1.13705e-013 -2.22639e-014
lhumerus -40.2394 2.11667 80.5069
lradius 40.7546
lwrist 14.527
lhand -33.3346 7.22693
lfingers 7.12502
lthumb -6.53727 37.106
rfemur -14.7461 -14.8345 6.86263
rtibia 36.14
rfoot 6.92162 -31.5031
rtoes 8.71894
lfemur -27.6379 24.5942 3.50684
ltibia 47.5768
lfoot -13.5957 12.0065
ltoes -19.4243
506
root -3.83126 16.2393 23.2764 -366.646 56.7462 -16.7679
lowerback 3.0729 -2.22468 -6.41468
upperback 1.09594 -3.13849 0.55791
thorax -0.213958 -1.5861 4.26053
lowerneck -5.13544 -12.9362 -6.9463
upperneck 14.6631 -18.8402 12.3716
head 7.18513 -8.65242 3.36083
rclavicle -9.42239e-014 -6.36111e-015
rhumerus -40.3533 4.94486 -69.5849
rradius 44.2929
rwrist 5.16987
rhand -24.1344 -25.8543
rfingers 7.12502
rthumb 2.34753 -55.8212
lclavicle -9.42239e-014 -6.36111e-015
lhumerus -41.8402 1.75142 80.1541
lradius 41.9442
lwrist 15.7417
lhand -33.0631 7.89894
lfingers 7.12502
lthumb -6.27513 37.786
rfemur -15.1667 -16.1398 8.31459
rtibia 35.4744
rfoot 5.61008 -32.3362
rtoes 8.58497
lfemur -26.0166 22.8899 5.01301
ltibia 46.6358
lfoot -11.5916 14.7275
ltoes -19.2892
507
root -3.94348 16.2863 23.4259 -366.429 54.671 -16.6049
lowerback 2.77162 -2.02258 -6.09012
upperback 1.07128 -2.84181 0.450648
thorax -0.128719 -1.43882 3.94978
lowerneck -5.48111 -12.5797 -6.68713
upperneck 14.943 -18.3616 12.1539
head 7.23949 -8.39938 3.28994
rclavicle -2.8625e-014 -7.95139e-015
rhumerus -40.9663 4.97751 -71.5137
rradius 44.1338
rwrist 5.16727
rhand -24.4614 -25.9284
rfingers 7.12502
rthumb 2.03178 -55.8985
lclavicle -2.8625e-014 -7.95139e-015
lhumerus -43.4798 1.25768 79.9194
lradius 43.1152
lwrist 16.7143
lhand -32.6271 8.43372
lfingers 7.12502
lthumb -5.85416 38.3328
rfemur -15.5676 -17.1978 9.77569
rtibia 34.7542
rfoot 4.90282 -32.4658
rtoes 7.0744
lfemur -24.4374 20.959 6.48737
ltibia 45.7491
lfoot -9.56492 17.6034
ltoes -18.6892
508
root -4.05581 16.3353 23.5744 -366.196 52.5851 -16.4704
lowerback 2.45671 -1.82827 -5.73369
upperback 1.02597 -2.55649 0.346004
thorax -0.0526746 -1.29623 3.62598
lowerneck -5.8251 -12.2149 -6.41719
upperneck 15.2287 -17.8735 11.9298
head 7.29551 -8.14189 3.2164
rclavicle 7.7526e-014 7.95139e-015
rhumerus -41.5234 4.90554 -73.348
rradius 43.9732
rwrist 5.10777
rhand -24.6056 -25.9736
rfingers 7.12502
rthumb 1.89248 -55.9449
lclavicle 7.7526e-014 7.95139e-015
lhumerus -45.1372 0.702959 79.8175
lradius 44.2651
lwrist 17.5182
lhand -32.0924 8.81283
lfingers 7.12502
lthumb -5.33798 38.7256
rfemur -15.9333 -17.9711 11.169
rtibia 34.013
rfoot 4.7619 -31.9411
rtoes 4.09044
lfemur -22.9504 18.8077 7.85724
ltibia 44.9719
lfoot -7.57584 20.6376
ltoes -17.5482
